<?xml version="1.0" encoding="UTF-8" standalone="no"?>
<!-- Created with Inkscape (http://www.inkscape.org/) -->

<svg
   xmlns:dc="http://purl.org/dc/elements/1.1/"
   xmlns:cc="http://creativecommons.org/ns#"
   xmlns:rdf="http://www.w3.org/1999/02/22-rdf-syntax-ns#"
   xmlns:svg="http://www.w3.org/2000/svg"
   xmlns="http://www.w3.org/2000/svg"
   xmlns:sodipodi="http://sodipodi.sourceforge.net/DTD/sodipodi-0.dtd"
   xmlns:inkscape="http://www.inkscape.org/namespaces/inkscape"
   id="svg8"
   version="1.1"
   viewBox="0 0 67.468749 13.229166"
   height="50"
   width="255"
   inkscape:version="0.92.4 (5da689c313, 2019-01-14)"
   sodipodi:docname="temtem-select-mask-3.svg">
  <defs
     id="defs2">
    <inkscape:path-effect
       effect="bspline"
       id="path-effect106"
       is_visible="true"
       weight="33.333333"
       steps="2"
       helper_size="0"
       apply_no_weight="true"
       apply_with_weight="true"
       only_selected="false" />
    <inkscape:path-effect
       effect="bspline"
       id="path-effect102"
       is_visible="true"
       weight="33.333333"
       steps="2"
       helper_size="0"
       apply_no_weight="true"
       apply_with_weight="true"
       only_selected="false" />
    <inkscape:path-effect
       effect="bspline"
       id="path-effect98"
       is_visible="true"
       weight="33.333333"
       steps="2"
       helper_size="0"
       apply_no_weight="true"
       apply_with_weight="true"
       only_selected="false" />
    <inkscape:path-effect
       effect="bspline"
       id="path-effect94"
       is_visible="true"
       weight="33.333333"
       steps="2"
       helper_size="0"
       apply_no_weight="true"
       apply_with_weight="true"
       only_selected="false" />
    <inkscape:path-effect
       effect="bspline"
       id="path-effect69"
       is_visible="true"
       weight="33.333333"
       steps="2"
       helper_size="0"
       apply_no_weight="true"
       apply_with_weight="true"
       only_selected="false" />
    <inkscape:path-effect
       only_selected="false"
       apply_with_weight="true"
       apply_no_weight="true"
       helper_size="0"
       steps="2"
       weight="33.333333"
       is_visible="true"
       id="path-effect4607"
       effect="bspline" />
    <inkscape:path-effect
       effect="bspline"
       id="path-effect4603"
       is_visible="true"
       weight="33.333333"
       steps="2"
       helper_size="0"
       apply_no_weight="true"
       apply_with_weight="true"
       only_selected="false" />
    <inkscape:path-effect
       only_selected="false"
       apply_with_weight="true"
       apply_no_weight="true"
       helper_size="0"
       steps="2"
       weight="33.333333"
       is_visible="true"
       id="path-effect4592"
       effect="bspline" />
    <inkscape:path-effect
       effect="bspline"
       id="path-effect4569"
       is_visible="true"
       weight="33.333333"
       steps="2"
       helper_size="0"
       apply_no_weight="true"
       apply_with_weight="true"
       only_selected="false" />
    <inkscape:path-effect
       effect="bspline"
       id="path-effect4569-3"
       is_visible="true"
       weight="33.333333"
       steps="2"
       helper_size="0"
       apply_no_weight="true"
       apply_with_weight="true"
       only_selected="false" />
    <inkscape:path-effect
       effect="bspline"
       id="path-effect69-3"
       is_visible="true"
       weight="33.333333"
       steps="2"
       helper_size="0"
       apply_no_weight="true"
       apply_with_weight="true"
       only_selected="false" />
    <inkscape:path-effect
       effect="bspline"
       id="path-effect69-3-3"
       is_visible="true"
       weight="33.333333"
       steps="2"
       helper_size="0"
       apply_no_weight="true"
       apply_with_weight="true"
       only_selected="false" />
    <inkscape:path-effect
       effect="bspline"
       id="path-effect94-7"
       is_visible="true"
       weight="33.333333"
       steps="2"
       helper_size="0"
       apply_no_weight="true"
       apply_with_weight="true"
       only_selected="false" />
    <inkscape:path-effect
       effect="bspline"
       id="path-effect98-3"
       is_visible="true"
       weight="33.333333"
       steps="2"
       helper_size="0"
       apply_no_weight="true"
       apply_with_weight="true"
       only_selected="false" />
  </defs>
  <sodipodi:namedview
     id="base"
     pagecolor="#ffffff"
     bordercolor="#666666"
     borderopacity="1.0"
     inkscape:pageopacity="0.0"
     inkscape:pageshadow="2"
     inkscape:zoom="2.8284272"
     inkscape:cx="64.798597"
     inkscape:cy="29.492347"
     inkscape:document-units="mm"
     inkscape:current-layer="layer3"
     showgrid="false"
     showborder="true"
     inkscape:window-width="1846"
     inkscape:window-height="1016"
     inkscape:window-x="74"
     inkscape:window-y="30"
     inkscape:window-maximized="1"
     units="px"
     inkscape:snap-global="true"
     inkscape:showpageshadow="false" />
  <metadata
     id="metadata5">
    <rdf:RDF>
      <cc:Work
         rdf:about="">
        <dc:format>image/svg+xml</dc:format>
        <dc:type
           rdf:resource="http://purl.org/dc/dcmitype/StillImage" />
        <dc:title />
      </cc:Work>
    </rdf:RDF>
  </metadata>
  <g
     inkscape:groupmode="layer"
     id="layer3"
     inkscape:label="Layer 3"
     transform="translate(0,-54.239583)">
    <path
       transform="matrix(0.94934516,0,0,0.9561183,-36.978137,39.559604)"
       style="display:inline;fill:#000000;stroke:none;stroke-width:0.26458332px;stroke-linecap:butt;stroke-linejoin:miter;stroke-opacity:1"
       d="m 42.609579,29.025925 c -0.280499,0.0039 -0.841765,0.01169 -1.259012,-0.113087 -0.417247,-0.12478 -0.689956,-0.381905 -0.947225,-0.670362 -0.25727,-0.288457 -0.49892,-0.608058 -0.732746,-0.873061 -0.233825,-0.265004 -0.459919,-0.475505 -0.569056,-0.865424 -0.109137,-0.38992 -0.101341,-0.958955 -0.101342,-2.252508 0,-1.293552 -0.0078,-3.313502 -0.0039,-4.537351 0.0039,-1.223848 0.01949,-1.652649 0.167626,-2.042314 0.148134,-0.389665 0.428945,-0.740679 0.697781,-1.071852 0.268836,-0.331172 0.526296,-0.643244 0.943103,-0.814592 0.416808,-0.171349 0.994194,-0.202561 1.761799,-0.218145 0.767605,-0.01558 1.726897,-0.01558 2.346603,-0.03119 0.619705,-0.0156 0.900415,-0.04679 1.215801,0.11285 0.315386,0.159641 0.666539,0.510794 0.994073,0.690092 0.327534,0.179297 0.631555,0.187094 0.8926,0.06623 0.261046,-0.120865 0.479501,-0.370528 0.756054,-0.491216 0.276552,-0.120688 0.612132,-0.112883 4.506882,-0.0429 3.894751,0.06999 11.360546,0.202367 15.231119,0.27678 3.870573,0.07441 4.151705,0.09095 4.523607,1.1e-5 0.371902,-0.09094 0.83533,-0.289551 1.143938,-0.394219 0.308608,-0.104668 0.463056,-0.115699 2.881353,-0.123952 2.418296,-0.0083 7.117709,-0.01378 9.625733,-0.01929 2.508023,-0.0055 2.833256,-0.01103 3.39237,0.08813 0.559113,0.09916 1.35352,0.303278 2.243659,0.399717 0.89014,0.09644 1.877043,0.08541 2.566036,0.0054 0.688992,-0.07997 1.08046,-0.228833 1.466153,-0.35004 0.385692,-0.121207 0.766339,-0.21499 2.534426,-0.275599 1.768085,-0.06061 4.918105,-0.08814 6.662685,-0.09916 1.74458,-0.01102 2.08086,-0.0055 2.41408,0.16799 0.33322,0.173495 0.66421,0.515517 1.0032,0.898602 0.33899,0.383086 0.68625,0.807515 0.85438,1.237357 0.16813,0.429841 0.1571,0.86527 0.16537,1.502192 0.008,0.636921 0.0358,1.474249 -0.0358,2.028236 -0.0716,0.553988 -0.2424,0.823999 -0.31967,1.08876 -0.0773,0.264762 -0.0608,0.523536 -0.0359,1.290327 0.0248,0.766792 0.0579,2.038886 -0.1019,2.84645 -0.15975,0.807564 -0.51246,1.149248 -0.86261,1.47183 -0.35015,0.322583 -0.69714,0.625521 -1.08594,0.77447 -0.38879,0.14895 -0.81838,0.143442 -2.83693,0.146198 -2.01854,0.0028 -5.621298,0.01377 -7.671847,0.0028 -2.05055,-0.01102 -2.546607,-0.04409 -3.062204,-0.212268 -0.515598,-0.168179 -1.050014,-0.471198 -1.532272,-0.622807 -0.482259,-0.151608 -0.912138,-0.151608 -1.816553,-0.140578 -0.904415,0.01103 -2.281606,0.03307 -3.158082,0.03583 -0.876476,0.0028 -1.251229,-0.01377 -1.670281,0.124028 -0.419052,0.137799 -0.88176,0.429747 -1.309098,0.586941 -0.427337,0.157194 -0.818439,0.179229 -3.159334,0.237906 -2.340896,0.05868 -6.625215,0.153834 -8.95989,0.217029 -2.334676,0.0632 -2.716625,0.09437 -3.062048,0.02126 -0.345423,-0.07312 -0.660377,-0.254217 -0.964354,-0.351678 -0.303977,-0.09746 -0.60012,-0.113048 -3.0615,-0.132552 -2.46138,-0.0195 -7.08013,-0.04287 -9.555172,-0.06235 -2.475041,-0.01948 -2.802428,-0.03507 -3.044119,0.01163 -0.241691,0.0467 -0.397478,0.155755 -0.54182,0.257184 -0.144343,0.10143 -0.276609,0.194795 -0.49914,0.253382 -0.22253,0.05859 -0.533638,0.08192 -2.008167,0.07022 -1.474529,-0.0117 -4.106972,-0.05843 -5.424517,-0.08182 -1.317546,-0.02339 -1.317505,-0.02341 -1.598003,-0.01951 z"
       id="path96-5"
       inkscape:connector-curvature="0"
       inkscape:path-effect="#path-effect98-3"
       inkscape:original-d="m 42.890077,29.022029 c -0.561001,0.0075 -1.122267,0.01532 -1.683798,0.02339 -0.272703,-0.257633 -0.545412,-0.514757 -0.818512,-0.771739 -0.241401,-0.319884 -0.48305,-0.639485 -0.724969,-0.958829 -0.225772,-0.210714 -0.451866,-0.421214 -0.678196,-0.631425 0.0081,-0.569351 0.01585,-1.138387 0.02339,-1.707184 -0.0075,-2.018312 -0.01532,-4.038262 -0.02339,-6.056996 0.01585,-0.428953 0.03145,-0.857754 0.04677,-1.286234 0.28072,-0.350832 0.56153,-0.701847 0.841898,-1.052374 0.2573,-0.311821 0.51476,-0.623893 0.771742,-0.935443 0.576591,-0.03142 1.153978,-0.06263 1.730571,-0.09355 0.95863,-2.64e-4 1.917922,-2.64e-4 2.876487,0 0.28082,-0.03144 0.56153,-0.06263 0.841898,-0.09354 0.350695,0.350164 0.701847,0.701318 1.052375,1.052374 0.304284,0.0075 0.608304,0.01533 0.912056,0.02339 0.21835,-0.249505 0.436806,-0.499167 0.654812,-0.748354 0.335087,0.0075 0.670666,0.01533 1.005602,0.02339 7.454564,0.131913 14.920359,0.264294 22.380143,0.396838 0.281374,0.01627 0.562505,0.03281 0.84336,0.04961 0.462878,-0.198527 0.926306,-0.397139 1.389062,-0.595312 0.154498,-0.01128 0.308946,-0.02231 0.463021,-0.03307 4.682535,-0.0058 9.381948,-0.01129 14.072526,-0.01654 0.325464,-0.0058 0.650698,-0.01129 0.975651,-0.01654 0.793358,0.203516 1.587765,0.407635 2.38125,0.611849 0.986711,-0.01129 1.973614,-0.02231 2.960026,-0.03307 0.391522,-0.149052 0.782989,-0.297921 1.174088,-0.446484 0.380294,-0.0939 0.760942,-0.187678 1.141016,-0.28112 3.156144,-0.0278 6.306164,-0.05539 9.458854,-0.08268 0.33648,0.0052 0.67275,0.01076 1.00873,0.01654 0.33073,0.341225 0.66172,0.683242 0.99218,1.025261 0.34754,0.424176 0.6948,0.848606 1.0418,1.273307 -0.0108,0.435225 -0.0218,0.870655 -0.0331,1.30638 0.0278,0.838104 0.0554,1.67543 0.0827,2.513542 -0.17067,0.269913 -0.34149,0.539926 -0.51263,0.810286 0.0168,0.259103 0.0333,0.517878 0.0496,0.777214 0.0334,1.274255 0.0664,2.54635 0.0992,3.819921 -0.35259,0.341558 -0.7053,0.683241 -1.05834,1.02526 -0.34726,0.303136 -0.69426,0.606073 -1.04179,0.909505 -0.43004,-0.0058 -0.85963,-0.0113 -1.28985,-0.01654 -3.60687,0.01077 -7.209629,0.02177 -10.814842,0.03307 -0.495866,-0.03334 -0.991923,-0.06641 -1.488281,-0.09922 -0.534678,-0.303583 -1.069094,-0.606602 -1.604036,-0.909505 -0.429753,-2.65e-4 -0.859632,-2.65e-4 -1.289844,0 -1.378622,0.0218 -2.755813,0.04383 -4.134115,0.06615 -0.374634,-0.0168 -0.749387,-0.03334 -1.124479,-0.04961 -0.463068,0.292076 -0.925777,0.584023 -1.389062,0.876433 -0.391359,0.0218 -0.782461,0.04383 -1.174089,0.06615 -4.290155,0.09503 -8.574474,0.190185 -12.862105,0.285676 -0.381733,0.03092 -0.763682,0.0621 -1.145918,0.09354 -0.311782,-0.17189 -0.623366,-0.358849 -0.935445,-0.53788 -0.29604,-0.01585 -0.592182,-0.03145 -0.888669,-0.04677 -4.626287,-0.02368 -9.245037,-0.04704 -13.86795,-0.07016 -0.327158,-0.01585 -0.654545,-0.03145 -0.982216,-0.04677 -0.15576,0.108956 -0.311549,0.218006 -0.467719,0.327406 -0.132514,0.09346 -0.26478,0.186825 -0.397563,0.280633 -0.312259,0.02318 -0.623367,0.04651 -0.935445,0.07016 -2.636957,-0.04708 -5.2694,-0.09381 -7.904496,-0.140317 z" />
  </g>
</svg>
