<?xml version="1.0" encoding="UTF-8" standalone="no"?>
<!-- Created with Inkscape (http://www.inkscape.org/) -->

<svg
   xmlns:dc="http://purl.org/dc/elements/1.1/"
   xmlns:cc="http://creativecommons.org/ns#"
   xmlns:rdf="http://www.w3.org/1999/02/22-rdf-syntax-ns#"
   xmlns:svg="http://www.w3.org/2000/svg"
   xmlns="http://www.w3.org/2000/svg"
   xmlns:sodipodi="http://sodipodi.sourceforge.net/DTD/sodipodi-0.dtd"
   xmlns:inkscape="http://www.inkscape.org/namespaces/inkscape"
   id="svg8"
   version="1.1"
   viewBox="0 0 67.468749 15.875"
   height="60"
   width="255"
   inkscape:version="0.92.4 (5da689c313, 2019-01-14)"
   sodipodi:docname="temtem-select-1.svg">
  <defs
     id="defs2">
    <inkscape:path-effect
       effect="bspline"
       id="path-effect106"
       is_visible="true"
       weight="33.333333"
       steps="2"
       helper_size="0"
       apply_no_weight="true"
       apply_with_weight="true"
       only_selected="false" />
    <inkscape:path-effect
       effect="bspline"
       id="path-effect102"
       is_visible="true"
       weight="33.333333"
       steps="2"
       helper_size="0"
       apply_no_weight="true"
       apply_with_weight="true"
       only_selected="false" />
    <inkscape:path-effect
       effect="bspline"
       id="path-effect98"
       is_visible="true"
       weight="33.333333"
       steps="2"
       helper_size="0"
       apply_no_weight="true"
       apply_with_weight="true"
       only_selected="false" />
    <inkscape:path-effect
       effect="bspline"
       id="path-effect94"
       is_visible="true"
       weight="33.333333"
       steps="2"
       helper_size="0"
       apply_no_weight="true"
       apply_with_weight="true"
       only_selected="false" />
    <inkscape:path-effect
       effect="bspline"
       id="path-effect69"
       is_visible="true"
       weight="33.333333"
       steps="2"
       helper_size="0"
       apply_no_weight="true"
       apply_with_weight="true"
       only_selected="false" />
    <inkscape:path-effect
       only_selected="false"
       apply_with_weight="true"
       apply_no_weight="true"
       helper_size="0"
       steps="2"
       weight="33.333333"
       is_visible="true"
       id="path-effect4607"
       effect="bspline" />
    <inkscape:path-effect
       effect="bspline"
       id="path-effect4603"
       is_visible="true"
       weight="33.333333"
       steps="2"
       helper_size="0"
       apply_no_weight="true"
       apply_with_weight="true"
       only_selected="false" />
    <inkscape:path-effect
       only_selected="false"
       apply_with_weight="true"
       apply_no_weight="true"
       helper_size="0"
       steps="2"
       weight="33.333333"
       is_visible="true"
       id="path-effect4592"
       effect="bspline" />
    <inkscape:path-effect
       effect="bspline"
       id="path-effect4569"
       is_visible="true"
       weight="33.333333"
       steps="2"
       helper_size="0"
       apply_no_weight="true"
       apply_with_weight="true"
       only_selected="false" />
    <inkscape:path-effect
       effect="bspline"
       id="path-effect4569-3"
       is_visible="true"
       weight="33.333333"
       steps="2"
       helper_size="0"
       apply_no_weight="true"
       apply_with_weight="true"
       only_selected="false" />
    <inkscape:path-effect
       effect="bspline"
       id="path-effect69-3"
       is_visible="true"
       weight="33.333333"
       steps="2"
       helper_size="0"
       apply_no_weight="true"
       apply_with_weight="true"
       only_selected="false" />
    <inkscape:path-effect
       effect="bspline"
       id="path-effect69-3-6"
       is_visible="true"
       weight="33.333333"
       steps="2"
       helper_size="0"
       apply_no_weight="true"
       apply_with_weight="true"
       only_selected="false" />
  </defs>
  <sodipodi:namedview
     id="base"
     pagecolor="#ffffff"
     bordercolor="#666666"
     borderopacity="1.0"
     inkscape:pageopacity="0.0"
     inkscape:pageshadow="2"
     inkscape:zoom="2.0000001"
     inkscape:cx="115.77409"
     inkscape:cy="34.166384"
     inkscape:document-units="mm"
     inkscape:current-layer="g4813"
     showgrid="false"
     showborder="true"
     inkscape:window-width="1846"
     inkscape:window-height="1016"
     inkscape:window-x="74"
     inkscape:window-y="30"
     inkscape:window-maximized="1"
     units="px"
     inkscape:snap-global="true"
     inkscape:showpageshadow="false" />
  <metadata
     id="metadata5">
    <rdf:RDF>
      <cc:Work
         rdf:about="">
        <dc:format>image/svg+xml</dc:format>
        <dc:type
           rdf:resource="http://purl.org/dc/dcmitype/StillImage" />
        <dc:title />
      </cc:Work>
    </rdf:RDF>
  </metadata>
  <g
     inkscape:groupmode="layer"
     id="layer4"
     inkscape:label="Layer 3"
     transform="translate(0,-51.59375)"
     style="display:inline" />
  <g
     transform="translate(0,-51.59375)"
     inkscape:label="Layer 3 copy"
     id="g4813"
     inkscape:groupmode="layer"
     style="display:inline">
    <path
       transform="matrix(0.89905871,0,0,0.89905871,35.647077,39.314349)"
       inkscape:original-d="m -39.148302,22.80133 c 0.140581,-0.296488 0.280897,-0.592712 0.420949,-0.888671 -0.03088,-0.280596 -0.09328,-0.561531 -0.140317,-0.841899 -0.01532,-1.246569 -0.03092,-2.49478 -0.04677,-3.741774 0.01585,-0.202901 0.03145,-0.405623 0.04677,-0.608038 0.264936,-0.311643 0.53035,-0.623893 0.795126,-0.935443 0.202758,-0.233913 0.405622,-0.467987 0.608039,-0.701583 0.420706,0.01531 0.842164,0.03092 1.262849,0.04677 8.928348,-2.65e-4 17.867231,-2.65e-4 26.8004504,0 0.5147432,-2.65e-4 1.0292525,-2.65e-4 1.5434815,0 0.5924074,0.186727 1.1851595,0.373912 1.7773425,0.561266 0.4990291,0.186772 0.9980708,0.373912 1.4967093,0.561265 0.4522642,-0.01585 0.9045265,-0.03145 1.3563928,-0.04677 0.4053782,-0.03143 0.8109821,-0.06263 1.2160763,-0.09354 0.8259955,-0.124903 1.65288117,-0.249716 2.47892488,-0.374177 C 1.5121883,15.504692 2.557143,15.270747 3.601457,15.03715 4.193994,15.0213 4.7866164,15.0057 5.3787992,14.99038 c 3.5221539,0.0309 7.0472708,0.0621 10.5705098,0.09354 0.343235,-2.64e-4 0.686256,-2.64e-4 1.028987,0 0.358575,0.202259 0.717438,0.405095 1.07576,0.608039 0.421112,-0.01585 0.842164,-0.03145 1.262849,-0.04677 0.265134,-0.202812 0.530349,-0.405623 0.795127,-0.608038 0.374026,-0.01584 0.748619,-0.03145 1.122532,-0.04677 3.692549,0.03089 7.390267,0.03092 11.085004,0.04677 0.249698,-2.64e-4 0.499166,-2.64e-4 0.748353,0 0.327324,0.326794 0.655076,0.654546 0.982215,0.982216 0.390033,0.451866 0.779801,0.903997 1.169305,1.356393 2.65e-4,0.37393 2.65e-4,0.74809 0,1.122532 0.01587,2.605227 0.03145,5.207036 0.04677,7.810951 0.01585,0.29599 0.03145,0.592183 0.04677,0.888673 -0.49906,0.499057 -0.997542,0.99754 -1.496711,1.496708 -0.171323,0.171323 -0.34273,0.342731 -0.514493,0.514493 -0.499408,-0.03149 -0.997542,-0.03145 -1.49671,-0.04677 -3.010289,-0.03147 -6.017754,-0.06263 -9.027028,-0.09355 -0.202432,-0.04704 -0.405094,-0.09381 -0.608038,-0.140316 -0.343058,-0.171926 -0.685727,-0.34326 -1.028988,-0.514493 -0.202477,0.108905 -0.405094,0.218006 -0.608038,0.327406 -0.23396,0.218345 -0.498638,0.436274 -0.748355,0.654809 -0.546025,-0.03148 -1.091085,-0.06263 -1.637025,-0.09354 -8.7189206,0.09332 -17.43016319,0.186822 -26.1456415,0.280633 -0.3271507,-2.65e-4 -0.6545459,-2.65e-4 -0.9822156,0 -0.3742151,-0.171902 -0.7480901,-0.343263 -1.1225319,-0.514496 -0.296053,-0.171815 -0.592183,-0.343259 -0.888671,-0.514492 -2.619715,0.04652 -5.238218,0.09328 -7.857724,0.140316 -0.373951,0.01532 -0.74809,0.03092 -1.122532,0.04677 -0.327382,0.18696 -0.654546,0.373912 -0.982216,0.561266 -0.608355,0.03095 -1.215812,0.0621 -1.824114,0.09354 -0.920008,-0.03146 -1.839441,-0.06263 -2.759558,-0.09354 -3.648978,-0.06264 -7.296193,-0.09381 -10.944686,-0.140316 -0.420717,-2.65e-4 -0.841635,-2.65e-4 -1.262849,0 -0.233743,-0.281075 -0.467458,-0.561531 -0.701582,-0.841899 -0.358291,-0.312053 -0.71691,-0.623896 -1.075762,-0.935445 0.01585,-0.514787 0.03145,-1.029252 0.04677,-1.543481 -0.04648,-0.670311 -0.09328,-1.341067 -0.140317,-2.011203 0.156115,-0.343136 0.312079,-0.686257 0.467723,-1.028988 z"
       inkscape:path-effect="#path-effect69-3-6"
       inkscape:connector-curvature="0"
       id="path4811"
       d="m -39.078068,22.653059 c 0.07023,-0.148271 0.21055,-0.444495 0.257464,-0.731457 0.04691,-0.286963 -3.29e-4,-0.570424 -0.03149,-1.333916 -0.03116,-0.763492 -0.04676,-2.011703 -0.04675,-2.736661 1e-5,-0.724959 0.0156,-0.927681 0.155844,-1.18471 0.140241,-0.25703 0.405654,-0.56928 0.639424,-0.84201 0.233769,-0.272729 0.436633,-0.506803 0.748199,-0.615803 0.311566,-0.108999 0.733024,-0.09339 5.407546,-0.0856 4.674521,0.0078 13.613404,0.0078 18.337385,0.0078 4.7239816,0 5.2384909,0 5.791759,0.09352 0.5532681,0.09352 1.1460202,0.280707 1.6916166,0.467771 0.5455964,0.187064 1.044638,0.374204 1.5201535,0.459924 0.4755156,0.08572 0.9277781,0.07013 1.3564053,0.04674 0.4286273,-0.02338 0.8342313,-0.05458 1.4497832,-0.132502 0.6155518,-0.07792 1.44243754,-0.202733 2.37769819,-0.381997 0.93526061,-0.179264 1.98021511,-0.41321 2.79862201,-0.537903 0.818407,-0.124693 1.4110295,-0.140287 3.4681932,-0.132495 2.0571637,0.0078 5.582281,0.03899 7.515519,0.05458 1.933238,0.01559 2.276259,0.01559 2.626823,0.116875 0.350565,0.101287 0.709428,0.304123 1.099238,0.39764 0.38981,0.09352 0.810863,0.07792 1.153782,-0.03125 0.34292,-0.109177 0.608135,-0.311988 0.927527,-0.421007 0.319393,-0.109019 0.693986,-0.124626 2.727244,-0.124626 2.033258,10e-7 5.73091,0.0156 7.703128,0.0234 1.972218,0.0078 2.221686,0.0078 2.509809,0.171324 0.288123,0.163529 0.615875,0.491281 0.974452,0.881039 0.358577,0.389757 0.748345,0.841888 0.943239,1.254929 0.194893,0.413041 0.194893,0.787201 0.202693,2.277036 0.0078,1.489836 0.02338,4.091645 0.03896,5.541603 0.01559,1.449959 0.03117,1.746153 -0.210554,2.143919 -0.241728,0.397767 -0.740211,0.896249 -1.075457,1.231495 -0.335246,0.335245 -0.506654,0.506652 -0.842487,0.584723 -0.335833,0.07807 -0.83348,0.06252 -2.588205,0.03912 -1.754726,-0.0234 -4.762191,-0.05456 -6.368078,-0.09352 -1.605887,-0.03896 -1.80855,-0.08573 -2.081594,-0.194939 -0.273045,-0.109212 -0.615714,-0.280546 -0.888478,-0.311822 -0.272764,-0.03128 -0.475381,0.07783 -0.697236,0.237791 -0.221855,0.159965 -0.479762,0.385633 -0.877649,0.47929 -0.397887,0.09366 -0.942947,0.06251 -5.575368,0.09371 -4.6324208,0.0312 -13.34366336,0.124697 -17.8649793,0.17147 -4.5213159,0.04677 -4.8487111,0.04677 -5.1997266,-0.03902 -0.3510155,-0.08579 -0.7248908,-0.257151 -1.0601551,-0.428679 -0.335265,-0.171528 -0.631395,-0.342971 -2.089404,-0.405354 -1.458008,-0.06238 -4.076511,-0.01562 -5.573237,0.01555 -1.496725,0.03118 -1.870865,0.04677 -2.221757,0.148091 -0.350892,0.101324 -0.678057,0.288275 -1.146088,0.397507 -0.46803,0.109232 -1.075487,0.140382 -1.839653,0.140386 -0.764166,4e-6 -1.683599,-0.03116 -3.968244,-0.07015 -2.284644,-0.03899 -5.931659,-0.08574 -7.966263,-0.10913 -2.034603,-0.02339 -2.455521,-0.02339 -2.783143,-0.163806 -0.327622,-0.140418 -0.561336,-0.420875 -0.857523,-0.717063 -0.296187,-0.296189 -0.654807,-0.608031 -0.82631,-1.021345 -0.171504,-0.413313 -0.155915,-0.927778 -0.171506,-1.520034 -0.01559,-0.592256 -0.06239,-1.263012 -0.0078,-1.769685 0.05462,-0.506673 0.210584,-0.849794 0.288466,-1.021132 0.07788,-0.171339 0.07789,-0.171337 0.148125,-0.319608 z"
       style="display:inline;fill:#28282b;fill-opacity:1;stroke:none;stroke-width:0.26458332px;stroke-linecap:butt;stroke-linejoin:miter;stroke-opacity:1" />
  </g>
</svg>
