<?xml version="1.0" encoding="UTF-8" standalone="no"?>
<!-- Created with Inkscape (http://www.inkscape.org/) -->

<svg
   xmlns:dc="http://purl.org/dc/elements/1.1/"
   xmlns:cc="http://creativecommons.org/ns#"
   xmlns:rdf="http://www.w3.org/1999/02/22-rdf-syntax-ns#"
   xmlns:svg="http://www.w3.org/2000/svg"
   xmlns="http://www.w3.org/2000/svg"
   xmlns:sodipodi="http://sodipodi.sourceforge.net/DTD/sodipodi-0.dtd"
   xmlns:inkscape="http://www.inkscape.org/namespaces/inkscape"
   id="svg8"
   version="1.1"
   viewBox="0 0 67.468749 67.468749"
   height="255"
   width="255"
   inkscape:version="0.92.4 (5da689c313, 2019-01-14)"
   sodipodi:docname="temtem-border-1.svg">
  <defs
     id="defs2">
    <inkscape:path-effect
       only_selected="false"
       apply_with_weight="true"
       apply_no_weight="true"
       helper_size="0"
       steps="2"
       weight="33.333333"
       is_visible="true"
       id="path-effect4607"
       effect="bspline" />
    <inkscape:path-effect
       effect="bspline"
       id="path-effect4603"
       is_visible="true"
       weight="33.333333"
       steps="2"
       helper_size="0"
       apply_no_weight="true"
       apply_with_weight="true"
       only_selected="false" />
    <inkscape:path-effect
       only_selected="false"
       apply_with_weight="true"
       apply_no_weight="true"
       helper_size="0"
       steps="2"
       weight="33.333333"
       is_visible="true"
       id="path-effect4592"
       effect="bspline" />
    <inkscape:path-effect
       effect="bspline"
       id="path-effect4569"
       is_visible="true"
       weight="33.333333"
       steps="2"
       helper_size="0"
       apply_no_weight="true"
       apply_with_weight="true"
       only_selected="false" />
    <inkscape:path-effect
       effect="bspline"
       id="path-effect4569-3"
       is_visible="true"
       weight="33.333333"
       steps="2"
       helper_size="0"
       apply_no_weight="true"
       apply_with_weight="true"
       only_selected="false" />
  </defs>
  <sodipodi:namedview
     id="base"
     pagecolor="#ffffff"
     bordercolor="#666666"
     borderopacity="1.0"
     inkscape:pageopacity="0.0"
     inkscape:pageshadow="2"
     inkscape:zoom="1.4142136"
     inkscape:cx="111.01726"
     inkscape:cy="139.48071"
     inkscape:document-units="mm"
     inkscape:current-layer="g841"
     showgrid="false"
     showborder="true"
     inkscape:window-width="1294"
     inkscape:window-height="712"
     inkscape:window-x="72"
     inkscape:window-y="28"
     inkscape:window-maximized="1"
     units="px"
     inkscape:snap-global="true" />
  <metadata
     id="metadata5">
    <rdf:RDF>
      <cc:Work
         rdf:about="">
        <dc:format>image/svg+xml</dc:format>
        <dc:type
           rdf:resource="http://purl.org/dc/dcmitype/StillImage" />
        <dc:title></dc:title>
      </cc:Work>
    </rdf:RDF>
  </metadata>
  <g
     transform="translate(0,-229.53126)"
     style="display:inline;opacity:1"
     inkscape:label="Layer 2 copy"
     id="g841"
     inkscape:groupmode="layer">
    <path
       sodipodi:nodetypes="cscccscccccssssssccscccccccscccccccccccsccsscccccccccccccsccccccccccccccccccccccccccccscccsccc"
       inkscape:connector-curvature="0"
       id="path837"
       d="m 37.67113,230.03736 c -0.884035,0.0175 -2.005218,0.40312 -6.001537,1.77891 -4.567219,1.57231 -12.888877,4.43876 -17.049983,5.87216 -4.161106,1.43339 -4.161773,1.43347 -4.610704,1.6686 -0.4489324,0.23518 -1.347783,0.70624 -1.9573937,1.44397 -0.6096127,0.73775 -0.9299272,1.74287 -1.9674202,4.72705 -1.037497,2.98414 -2.7930688,7.95077 -3.8726719,10.83686 -1.0796011,2.88609 -1.48705801,3.70006 -1.6796287,4.49138 -0.19255228,0.79131 -0.17080358,1.56172 -0.11732197,2.98422 0.0534734,1.42248 0.13940887,3.49686 0.46026754,4.88747 0.32086173,1.39056 0.87713103,2.09719 1.82903983,3.74429 0.9519089,1.64711 2.2992222,4.23482 3.2299005,5.75387 0.9306763,1.51905 1.4448414,1.96921 1.6906593,2.55705 0.2458161,0.58786 0.2239414,1.31583 0.2025574,2.08575 -0.021384,0.76986 -0.043116,1.58272 0.1494158,2.18204 0.1925329,0.59923 0.5989945,0.98436 1.5081549,1.90422 0.9091602,0.91984 2.3212402,2.37475 3.1767542,3.30509 0.855515,0.93038 1.154795,1.33654 1.732773,1.52922 0.577981,0.19288 1.434265,0.17115 3.755349,0.32091 2.321087,0.1498 6.105602,0.47018 8.619754,0.75905 2.51415,0.2889 3.755361,0.54551 4.878439,0.96267 1.123084,0.41717 2.128686,0.99485 2.823784,1.50815 0.695097,0.51333 1.079312,0.96222 2.031599,1.20833 0.952285,0.24697 2.469656,0.28893 3.518695,0.25673 1.049038,-0.0322 1.626217,-0.13816 2.075719,-0.4272 0.449503,-0.28912 0.76986,-0.75969 1.251448,-1.13412 0.48159,-0.37441 1.123382,-0.65277 3.476581,-1.61544 2.353198,-0.96267 6.415085,-2.60832 8.940638,-3.68917 2.525552,-1.08085 3.509955,-1.59447 4.258735,-2.5039 0.748779,-0.90945 1.261108,-2.2138 1.571328,-3.43346 0.310221,-1.21967 0.417045,-2.35266 0.994744,-4.25673 0.577697,-1.90407 1.625625,-4.57603 2.513926,-6.25623 0.888298,-1.68019 1.615973,-2.36546 1.947365,-3.80952 0.331398,-1.44405 0.266775,-3.64702 -0.05415,-5.21937 -0.320926,-1.57232 -0.898442,-2.51347 -1.764864,-4.55655 -0.866419,-2.04307 -2.020936,-5.18609 -2.684396,-7.10157 -0.663465,-1.91547 -0.834129,-2.5982 -0.759092,-3.10156 0.07504,-0.50333 0.394863,-0.82395 0.812238,-1.03785 0.417378,-0.21392 0.93085,-0.32123 0.962653,-0.68489 0.03181,-0.36366 -0.417099,-0.98395 -0.930566,-1.82904 -0.513466,-0.8451 -1.091856,-1.91569 -1.775892,-2.42869 -0.684035,-0.513 -1.47481,-0.46996 -2.116834,-0.68388 -0.642024,-0.21391 -1.134515,-0.6846 -4.001023,-2.72752 -2.866509,-2.04292 -8.109046,-5.65939 -11.317185,-7.69121 -3.208143,-2.03181 -4.385703,-2.4805 -5.379826,-2.56605 -0.12426,-0.0115 -0.245734,-0.0175 -0.372027,-0.0135 z m -0.625723,5.43597 c 0.105729,-0.001 0.206824,0.001 0.310856,0.0115 0.83227,0.0716 1.817887,0.44889 4.337954,2.03762 2.520067,1.58873 6.578144,4.39078 9.004813,5.96742 2.426672,1.57667 3.223517,1.9284 3.851614,2.30538 0.628098,0.37694 1.087131,0.7798 1.521193,1.22035 0.434061,0.44054 0.842309,0.91815 1.084989,1.44898 0.242677,0.53085 0.31966,1.11456 0.405116,1.54226 0.08546,0.42771 0.179882,0.69878 0.387065,1.21536 0.207194,0.51655 0.525865,1.27449 0.763104,2.28529 0.237239,1.01078 0.390626,2.26533 0.651796,3.62299 0.261169,1.35765 0.629044,2.81365 1.054907,3.93583 0.425861,1.12219 1.294632,1.90956 1.563308,3.22588 0.268673,1.31638 -0.06288,3.16097 -0.264729,4.40013 -0.20183,1.23916 -0.658992,1.87211 -1.402865,3.27903 -0.743876,1.40699 -1.387066,3.32668 -1.946366,4.8905 -0.559298,1.56379 -0.84132,3.41112 -1.101032,4.43221 -0.259714,1.02107 -0.881288,1.47176 -1.508157,2.23316 -0.626867,0.76137 -2.156407,1.06252 -4.270769,1.96741 -2.11436,0.90488 -4.809611,2.41094 -6.77968,3.21687 -1.970071,0.80593 -2.506841,1.03928 -2.910022,1.35272 -0.403176,0.31348 -0.671567,0.70658 -1.047884,0.94862 -0.376319,0.24201 -0.859309,0.332 -1.567319,0.17347 -0.708012,-0.15854 -1.638159,-0.56448 -2.579108,-0.95964 -0.94095,-0.39515 -2.212017,-0.45768 -3.410397,-0.74002 -1.198382,-0.28241 -2.579925,-0.5915 -3.800474,-1.07698 -1.220547,-0.48547 -1.594023,-1.28631 -3.161674,-1.61142 -1.567646,-0.32513 -3.492598,-0.17407 -4.974746,-0.0421 -1.482144,0.13174 -2.881349,0.0624 -3.569837,-0.4242 -0.688488,-0.48672 -1.242006,-1.58262 -1.791937,-2.34645 -0.54993,-0.76385 -1.096384,-1.19506 -1.502141,-1.79896 -0.405757,-0.60389 -0.670492,-1.37967 -0.854352,-1.97945 -0.183861,-0.59982 -0.286677,-1.02377 -0.465284,-1.59238 -0.1786,-0.56863 -0.433419,-1.2836 -0.881428,-2.01056 -0.448007,-0.72694 -1.089774,-1.46655 -1.914274,-2.53397 -0.8244998,-1.06745 -1.8314906,-2.46276 -2.4998898,-3.53174 -0.6683991,-1.06895 -0.9978726,-1.81096 -1.2664892,-2.97519 -0.2686186,-1.16422 -0.4768035,-2.75009 -0.589624,-4.10732 -0.1128187,-1.35723 -0.1307671,-2.487 0.2045639,-2.93008 0.3353338,-0.44305 1.0238302,-0.20014 1.9283122,-2.37655 0.9044837,-2.17641 2.0248409,-6.76948 2.7194939,-9.48713 0.694654,-2.71765 0.963703,-3.55989 1.474063,-4.17753 0.510357,-0.6176 1.262674,-1.01144 1.638514,-1.20831 0.37584,-0.19689 0.376009,-0.19684 3.859633,-1.39686 3.48363,-1.20002 10.450714,-3.60023 14.274337,-4.91654 3.345669,-1.1518 4.284741,-1.47453 5.024846,-1.48911 z"
       style="fill:#28282b;fill-opacity:1;stroke:none;stroke-width:0.51341468px;stroke-linecap:butt;stroke-linejoin:miter;stroke-opacity:1" />
    <path
       style="opacity:0.25;fill:#28282b;fill-opacity:1;stroke:none;stroke-width:1.94046497px;stroke-linecap:butt;stroke-linejoin:miter;stroke-opacity:1"
       d="M 144.37891 7.9121094 C 141.03767 7.9782511 136.79951 9.4368825 121.69531 14.636719 C 104.43338 20.579308 72.982874 31.412503 57.255859 36.830078 C 41.528845 42.247615 41.524872 42.248038 39.828125 43.136719 C 38.13137 44.025588 34.735681 45.805479 32.431641 48.59375 C 30.127593 51.382096 28.915374 55.182147 24.994141 66.460938 C 21.072892 77.739577 14.437812 96.509912 10.357422 107.41797 C 6.2770398 118.32603 4.7375919 121.40372 4.0097656 124.39453 C 3.282009 127.38531 3.3642711 130.2955 3.5664062 135.67188 C 3.6062505 136.73181 3.6595983 137.94152 3.7148438 139.1543 L 36.677734 168.73633 C 34.74411 166.05605 32.85571 163.32204 31.396484 160.98828 C 28.870252 156.94816 27.624619 154.14243 26.609375 149.74219 C 25.594124 145.34199 24.807268 139.34844 24.380859 134.21875 C 23.954458 129.08906 23.886904 124.81916 25.154297 123.14453 C 26.4217 121.47001 29.022892 122.38791 32.441406 114.16211 C 35.859927 105.93631 40.095243 88.578074 42.720703 78.306641 C 45.346167 68.035208 46.362096 64.851966 48.291016 62.517578 C 50.219924 60.183342 53.063877 58.693294 54.484375 57.949219 C 55.904873 57.205068 55.905813 57.205431 69.072266 52.669922 C 82.238741 48.134413 108.57195 39.062921 123.02344 34.087891 C 135.66849 29.734631 139.21642 28.516043 142.01367 28.460938 L 142.01367 28.458984 C 142.41328 28.455205 142.79626 28.462268 143.18945 28.501953 C 146.33504 28.772567 150.05932 30.198476 159.58398 36.203125 C 169.10865 42.207774 184.44748 52.798858 193.61914 58.757812 C 202.79081 64.71688 205.80187 66.045897 208.17578 67.470703 C 210.54969 68.895358 212.28523 70.41696 213.92578 72.082031 C 215.56633 73.747064 217.10817 75.552307 218.02539 77.558594 C 218.5115 78.621954 218.81458 79.727083 219.04688 80.785156 L 237.56055 66.861328 C 235.91463 64.109536 234.09799 61.190113 232.01367 59.626953 C 229.42834 57.688055 226.44022 57.851485 224.01367 57.042969 C 221.58712 56.23449 219.72662 54.455647 208.89258 46.734375 C 198.05853 39.013103 178.24439 25.343382 166.11914 17.664062 C 153.99388 9.9847806 149.54247 8.2901355 145.78516 7.9667969 C 145.31551 7.9233323 144.85623 7.8989444 144.37891 7.9140625 L 144.37891 7.9121094 z "
       transform="matrix(0.26458333,0,0,0.26458333,0,229.53126)"
       id="path843" />
  </g>
</svg>
