<?xml version="1.0" encoding="UTF-8" standalone="no"?>
<!-- Created with Inkscape (http://www.inkscape.org/) -->

<svg
   xmlns:dc="http://purl.org/dc/elements/1.1/"
   xmlns:cc="http://creativecommons.org/ns#"
   xmlns:rdf="http://www.w3.org/1999/02/22-rdf-syntax-ns#"
   xmlns:svg="http://www.w3.org/2000/svg"
   xmlns="http://www.w3.org/2000/svg"
   xmlns:sodipodi="http://sodipodi.sourceforge.net/DTD/sodipodi-0.dtd"
   xmlns:inkscape="http://www.inkscape.org/namespaces/inkscape"
   id="svg8"
   version="1.1"
   viewBox="0 0 67.468749 15.875"
   height="60"
   width="255"
   inkscape:version="0.92.4 (5da689c313, 2019-01-14)"
   sodipodi:docname="temtem-select-2.svg">
  <defs
     id="defs2">
    <inkscape:path-effect
       effect="bspline"
       id="path-effect106"
       is_visible="true"
       weight="33.333333"
       steps="2"
       helper_size="0"
       apply_no_weight="true"
       apply_with_weight="true"
       only_selected="false" />
    <inkscape:path-effect
       effect="bspline"
       id="path-effect102"
       is_visible="true"
       weight="33.333333"
       steps="2"
       helper_size="0"
       apply_no_weight="true"
       apply_with_weight="true"
       only_selected="false" />
    <inkscape:path-effect
       effect="bspline"
       id="path-effect98"
       is_visible="true"
       weight="33.333333"
       steps="2"
       helper_size="0"
       apply_no_weight="true"
       apply_with_weight="true"
       only_selected="false" />
    <inkscape:path-effect
       effect="bspline"
       id="path-effect94"
       is_visible="true"
       weight="33.333333"
       steps="2"
       helper_size="0"
       apply_no_weight="true"
       apply_with_weight="true"
       only_selected="false" />
    <inkscape:path-effect
       effect="bspline"
       id="path-effect69"
       is_visible="true"
       weight="33.333333"
       steps="2"
       helper_size="0"
       apply_no_weight="true"
       apply_with_weight="true"
       only_selected="false" />
    <inkscape:path-effect
       only_selected="false"
       apply_with_weight="true"
       apply_no_weight="true"
       helper_size="0"
       steps="2"
       weight="33.333333"
       is_visible="true"
       id="path-effect4607"
       effect="bspline" />
    <inkscape:path-effect
       effect="bspline"
       id="path-effect4603"
       is_visible="true"
       weight="33.333333"
       steps="2"
       helper_size="0"
       apply_no_weight="true"
       apply_with_weight="true"
       only_selected="false" />
    <inkscape:path-effect
       only_selected="false"
       apply_with_weight="true"
       apply_no_weight="true"
       helper_size="0"
       steps="2"
       weight="33.333333"
       is_visible="true"
       id="path-effect4592"
       effect="bspline" />
    <inkscape:path-effect
       effect="bspline"
       id="path-effect4569"
       is_visible="true"
       weight="33.333333"
       steps="2"
       helper_size="0"
       apply_no_weight="true"
       apply_with_weight="true"
       only_selected="false" />
    <inkscape:path-effect
       effect="bspline"
       id="path-effect4569-3"
       is_visible="true"
       weight="33.333333"
       steps="2"
       helper_size="0"
       apply_no_weight="true"
       apply_with_weight="true"
       only_selected="false" />
    <inkscape:path-effect
       effect="bspline"
       id="path-effect69-3"
       is_visible="true"
       weight="33.333333"
       steps="2"
       helper_size="0"
       apply_no_weight="true"
       apply_with_weight="true"
       only_selected="false" />
    <inkscape:path-effect
       effect="bspline"
       id="path-effect69-3-6"
       is_visible="true"
       weight="33.333333"
       steps="2"
       helper_size="0"
       apply_no_weight="true"
       apply_with_weight="true"
       only_selected="false" />
    <inkscape:path-effect
       effect="bspline"
       id="path-effect94-5"
       is_visible="true"
       weight="33.333333"
       steps="2"
       helper_size="0"
       apply_no_weight="true"
       apply_with_weight="true"
       only_selected="false" />
  </defs>
  <sodipodi:namedview
     id="base"
     pagecolor="#ffffff"
     bordercolor="#666666"
     borderopacity="1.0"
     inkscape:pageopacity="0.0"
     inkscape:pageshadow="2"
     inkscape:zoom="11.313709"
     inkscape:cx="103.77699"
     inkscape:cy="11.171048"
     inkscape:document-units="mm"
     inkscape:current-layer="layer7"
     showgrid="false"
     showborder="true"
     inkscape:window-width="1846"
     inkscape:window-height="1016"
     inkscape:window-x="74"
     inkscape:window-y="30"
     inkscape:window-maximized="1"
     units="px"
     inkscape:snap-global="true"
     inkscape:showpageshadow="false" />
  <metadata
     id="metadata5">
    <rdf:RDF>
      <cc:Work
         rdf:about="">
        <dc:format>image/svg+xml</dc:format>
        <dc:type
           rdf:resource="http://purl.org/dc/dcmitype/StillImage" />
        <dc:title />
      </cc:Work>
    </rdf:RDF>
  </metadata>
  <g
     inkscape:groupmode="layer"
     id="layer7"
     inkscape:label="Layer 3"
     style="display:inline">
    <path
       transform="matrix(0.93218345,0,0,0.93218345,36.090083,-30.416994)"
       style="display:inline;fill:#000000;stroke:none;stroke-width:0.26458332px;stroke-linecap:butt;stroke-linejoin:miter;stroke-opacity:1;fill-opacity:1;opacity:0.5"
       d="m 33.591011,38.577091 c -0.01107,1.353524 -0.03322,4.060841 -0.0365,5.554838 -0.0033,1.493997 0.0123,1.774602 -0.089,2.039739 -0.101308,0.265137 -0.319384,0.514366 -0.553272,0.787202 -0.233887,0.272835 -0.482826,0.568392 -0.662634,0.804605 -0.179807,0.236212 -0.289943,0.412429 -0.847519,0.484218 -0.557576,0.07179 -1.559029,0.03877 -2.148822,0.04975 -0.589793,0.01098 -0.766136,0.06608 -1.296115,0.110256 -0.529979,0.04417 -1.410342,0.07719 -2.138045,0.0827 -0.727703,0.0055 -1.300788,-0.01653 -1.780447,-0.05511 -0.479659,-0.03859 -0.865339,-0.09368 -1.300441,-0.200072 -0.435101,-0.106389 -0.8989,-0.257393 -1.334375,-0.33459 -0.435476,-0.0772 -0.832217,-0.0772 -1.218166,0.01649 -0.38595,0.09369 -0.760526,0.280978 -1.019684,0.44635 -0.259159,0.165373 -0.402352,0.308567 -0.623129,0.363802 -0.220777,0.05524 -0.517884,0.02222 -5.956978,-0.07707 -5.4390946,-0.09929 -16.0031524,-0.26453 -21.5263393,-0.358234 -5.5231867,-0.0937 -5.9972207,-0.115753 -6.4603287,-0.04963 -0.463108,0.06613 -0.914865,0.220384 -1.43874,0.336202 -0.523876,0.115817 -1.11877,0.192933 -1.675643,0.226025 -0.556873,0.03309 -1.074759,0.02207 -1.554479,-0.06062 -0.47972,-0.0827 -0.920473,-0.23696 -1.422129,-0.330691 -0.501655,-0.09373 -1.063699,-0.126794 -3.31903,-0.110253 -2.255332,0.01654 -6.200291,0.08266 -8.322498,0.09921 -2.122208,0.01655 -2.419843,-0.01652 -2.651535,-0.115818 -0.231691,-0.0993 -0.396926,-0.264532 -0.639463,-0.51258 -0.242537,-0.248049 -0.562243,-0.578779 -0.799266,-0.826827 -0.237024,-0.248048 -0.391366,-0.413415 -0.474047,-0.656063 -0.08268,-0.242648 -0.09371,-0.562374 -0.0937,-0.887466 5e-6,-0.325093 0.01104,-0.656087 0.14885,-0.97016 0.137813,-0.314072 0.402616,-0.611975 0.534784,-0.898471 0.132167,-0.286495 0.132167,-0.56236 0.05504,-0.859786 -0.07712,-0.297426 -0.231612,-0.61744 -0.394642,-0.879228 -0.163031,-0.261788 -0.344054,-0.476752 -0.421204,-0.724912 -0.07715,-0.248161 -0.0551,-0.534825 -0.04959,-1.04708 0.0055,-0.512254 -0.0055,-1.251611 0.0048,-1.742259 0.01033,-0.490647 0.04483,-0.755133 0.278961,-1.093797 0.234128,-0.338663 0.65907,-0.752709 1.017261,-1.121932 0.358191,-0.369223 0.645002,-0.689128 1.058191,-0.859862 0.41319,-0.170734 0.953849,-0.192803 2.51313,-0.225862 1.55928,-0.03306 4.14028,-0.07718 6.124568,-0.03859 1.984288,0.03859 3.373495,0.159872 4.376639,0.275626 1.003144,0.115754 1.620612,0.226016 2.254428,0.275606 0.633816,0.04959 1.284471,0.03856 2.016693,-0.128686 0.732221,-0.16725 1.527812,-0.483306 2.123044,-0.692725 0.595231,-0.209418 0.981235,-0.308677 1.454996,-0.29764 0.473762,0.01104 1.036456,0.132402 1.47735,0.248144 0.440894,0.115741 0.760712,0.226023 3.4770199,0.259078 2.7163077,0.03306 7.8340642,-0.01106 10.52398664,-0.03311 2.68992246,-0.02205 2.95451956,-0.02205 3.23539306,0.07159 0.2808736,0.09363 0.5788282,0.281235 0.8268352,0.452086 0.2480069,0.170851 0.4464909,0.325228 0.7387131,0.402383 0.2922222,0.07716 0.6781442,0.07716 1.6091905,0.08266 0.9310463,0.0055 2.4093162,0.01654 3.2747026,0.02205 0.865386,0.0055 1.118991,0.0055 1.366914,-0.110253 0.247923,-0.115763 0.490711,-0.347515 0.760663,-0.540307 0.269953,-0.192792 0.567941,-0.347305 3.541469,-0.402367 2.973527,-0.05506 8.635012,-0.01092 11.65566,0.01664 3.020649,0.02756 3.406517,0.03859 3.737018,0.198324 0.330502,0.159738 0.606292,0.468623 0.865365,0.771793 0.259073,0.303169 0.501595,0.60081 0.700046,0.835093 0.198451,0.234283 0.352777,0.405143 0.429953,0.490588 0.07718,0.08544 0.07717,0.08546 0.0661,1.438986 z"
       id="path92-3"
       inkscape:connector-curvature="0"
       inkscape:path-effect="#path-effect94-5"
       inkscape:original-d="m 33.602083,37.223567 c -0.02188,2.70705 -0.04403,5.414367 -0.06644,8.121946 0.01585,0.280398 0.03145,0.561002 0.04677,0.841899 -0.218199,0.24941 -0.436276,0.498639 -0.654812,0.748356 -0.249234,0.295957 -0.498173,0.591515 -0.747656,0.887669 -0.110086,0.176294 -0.220221,0.352512 -0.33073,0.529167 -1.004705,-0.0334 -2.006158,-0.06641 -3.009635,-0.09922 -0.17617,0.05487 -0.352512,0.109979 -0.529167,0.165364 -0.883261,0.03287 -1.763625,0.06588 -2.645833,0.09922 -0.573177,-0.02233 -1.146263,-0.04436 -1.719792,-0.06615 -0.385757,-0.05541 -0.771437,-0.110508 -1.157552,-0.165364 -0.485084,-0.154694 -0.947825,-0.308946 -1.422135,-0.463021 -0.396745,-2.65e-4 -0.793486,-2.65e-4 -1.190625,0 -0.374812,0.187275 -0.749388,0.374563 -1.124479,0.562239 -0.143173,0.143174 -0.286368,0.286367 -0.429948,0.429948 -0.297941,-0.0334 -0.595048,-0.06641 -0.892969,-0.09922 -10.5802954,-0.165759 -21.1443532,-0.330994 -31.716927,-0.496094 -0.473792,-0.0223 -0.947825,-0.04436 -1.422135,-0.06615 -0.451972,0.154157 -0.903729,0.308417 -1.35599,0.463021 -0.595466,0.07696 -1.19036,0.154075 -1.785937,0.23151 -0.518134,-0.0113 -1.03602,-0.0223 -1.554427,-0.03307 -0.440928,-0.15468 -0.88168,-0.308946 -1.322917,-0.46302 -0.56217,-0.03335 -1.124214,-0.06641 -1.686718,-0.09922 -3.948179,0.06591 -7.893138,0.132027 -11.840104,0.198437 -0.297413,-0.03334 -0.595048,-0.06641 -0.892969,-0.09922 -0.16523,-0.165759 -0.330465,-0.330994 -0.496094,-0.496094 -0.319439,-0.330994 -0.639146,-0.661723 -0.959115,-0.992188 -0.154074,-0.165626 -0.308416,-0.330993 -0.46302,-0.496093 -0.01077,-0.31995 -0.02178,-0.639676 -0.03307,-0.959115 0.01127,-0.330729 0.0223,-0.661723 0.03307,-0.992187 0.264628,-0.297675 0.529431,-0.595578 0.79375,-0.892969 2.64e-4,-0.275614 2.64e-4,-0.551479 0,-0.826823 -0.153927,-0.319662 -0.308417,-0.639675 -0.463021,-0.959115 -0.165042,-0.209653 -0.352513,-0.419187 -0.529167,-0.628385 0.02231,-0.286864 0.04436,-0.573529 0.06615,-0.859896 -0.01074,-0.738164 -0.02177,-1.477521 -0.03307,-2.215885 0.03333,-0.242713 0.06641,-0.507384 0.09922,-0.760677 0.429715,-0.429715 0.86016,-0.838113 1.289844,-1.256771 0.286718,-0.31977 0.573529,-0.639675 0.859895,-0.959115 0.539986,-0.0223 1.080646,-0.04436 1.620573,-0.06615 2.57864,-0.04434 5.15964,-0.08846 7.739063,-0.132291 1.389182,0.120991 2.778389,0.242271 4.167187,0.363802 0.617519,0.109958 1.234987,0.22022 1.852083,0.330729 0.650477,-0.0113 1.301133,-0.0223 1.951302,-0.03307 0.815726,-0.319836 1.609814,-0.639675 2.414323,-0.959115 0.385963,-0.09944 0.771966,-0.198702 1.157552,-0.297656 0.56205,0.120904 1.124744,0.242271 1.686719,0.363802 0.319857,0.10994 0.639675,0.220221 0.959115,0.330729 5.1130633,-0.04434 10.2308198,-0.08846 15.3458329,-0.132291 0.2648341,-2.65e-4 0.5294312,-2.65e-4 0.79375,0 0.2976231,0.18696 0.595577,0.374562 0.8929687,0.562239 0.1986553,0.154041 0.3971396,0.308417 0.5953125,0.463021 0.386044,-2.64e-4 0.771966,-2.64e-4 1.1575521,0 1.4765086,0.01074 2.9547785,0.02177 4.4317708,0.03307 0.253778,-2.64e-4 0.507383,-2.64e-4 0.760677,0 0.242546,-0.231534 0.485334,-0.463285 0.727604,-0.694531 0.297589,-0.154432 0.595577,-0.308946 0.892969,-0.463021 5.649717,0.04379 11.311202,0.08793 16.966406,0.132292 0.386098,0.01077 0.771967,0.02177 1.157552,0.03307 0.275688,0.30821 0.551479,0.617095 0.826823,0.926041 0.242811,0.297408 0.485333,0.595048 0.727604,0.892969 0.15462,0.17063 0.308946,0.34149 0.463021,0.51263 z" />
  </g>
  <g
     inkscape:label="Layer 3 copy"
     id="g4855"
     inkscape:groupmode="layer"
     style="display:inline">
    <path
       inkscape:original-d="m 33.602083,37.223567 c -0.02188,2.70705 -0.04403,5.414367 -0.06644,8.121946 0.01585,0.280398 0.03145,0.561002 0.04677,0.841899 -0.218199,0.24941 -0.436276,0.498639 -0.654812,0.748356 -0.249234,0.295957 -0.498173,0.591515 -0.747656,0.887669 -0.110086,0.176294 -0.220221,0.352512 -0.33073,0.529167 -1.004705,-0.0334 -2.006158,-0.06641 -3.009635,-0.09922 -0.17617,0.05487 -0.352512,0.109979 -0.529167,0.165364 -0.883261,0.03287 -1.763625,0.06588 -2.645833,0.09922 -0.573177,-0.02233 -1.146263,-0.04436 -1.719792,-0.06615 -0.385757,-0.05541 -0.771437,-0.110508 -1.157552,-0.165364 -0.485084,-0.154694 -0.947825,-0.308946 -1.422135,-0.463021 -0.396745,-2.65e-4 -0.793486,-2.65e-4 -1.190625,0 -0.374812,0.187275 -0.749388,0.374563 -1.124479,0.562239 -0.143173,0.143174 -0.286368,0.286367 -0.429948,0.429948 -0.297941,-0.0334 -0.595048,-0.06641 -0.892969,-0.09922 -10.5802954,-0.165759 -21.1443532,-0.330994 -31.716927,-0.496094 -0.473792,-0.0223 -0.947825,-0.04436 -1.422135,-0.06615 -0.451972,0.154157 -0.903729,0.308417 -1.35599,0.463021 -0.595466,0.07696 -1.19036,0.154075 -1.785937,0.23151 -0.518134,-0.0113 -1.03602,-0.0223 -1.554427,-0.03307 -0.440928,-0.15468 -0.88168,-0.308946 -1.322917,-0.46302 -0.56217,-0.03335 -1.124214,-0.06641 -1.686718,-0.09922 -3.948179,0.06591 -7.893138,0.132027 -11.840104,0.198437 -0.297413,-0.03334 -0.595048,-0.06641 -0.892969,-0.09922 -0.16523,-0.165759 -0.330465,-0.330994 -0.496094,-0.496094 -0.319439,-0.330994 -0.639146,-0.661723 -0.959115,-0.992188 -0.154074,-0.165626 -0.308416,-0.330993 -0.46302,-0.496093 -0.01077,-0.31995 -0.02178,-0.639676 -0.03307,-0.959115 0.01127,-0.330729 0.0223,-0.661723 0.03307,-0.992187 0.264628,-0.297675 0.529431,-0.595578 0.79375,-0.892969 2.64e-4,-0.275614 2.64e-4,-0.551479 0,-0.826823 -0.153927,-0.319662 -0.308417,-0.639675 -0.463021,-0.959115 -0.165042,-0.209653 -0.352513,-0.419187 -0.529167,-0.628385 0.02231,-0.286864 0.04436,-0.573529 0.06615,-0.859896 -0.01074,-0.738164 -0.02177,-1.477521 -0.03307,-2.215885 0.03333,-0.242713 0.06641,-0.507384 0.09922,-0.760677 0.429715,-0.429715 0.86016,-0.838113 1.289844,-1.256771 0.286718,-0.31977 0.573529,-0.639675 0.859895,-0.959115 0.539986,-0.0223 1.080646,-0.04436 1.620573,-0.06615 2.57864,-0.04434 5.15964,-0.08846 7.739063,-0.132291 1.389182,0.120991 2.778389,0.242271 4.167187,0.363802 0.617519,0.109958 1.234987,0.22022 1.852083,0.330729 0.650477,-0.0113 1.301133,-0.0223 1.951302,-0.03307 0.815726,-0.319836 1.609814,-0.639675 2.414323,-0.959115 0.385963,-0.09944 0.771966,-0.198702 1.157552,-0.297656 0.56205,0.120904 1.124744,0.242271 1.686719,0.363802 0.319857,0.10994 0.639675,0.220221 0.959115,0.330729 5.1130633,-0.04434 10.2308198,-0.08846 15.3458329,-0.132291 0.2648341,-2.65e-4 0.5294312,-2.65e-4 0.79375,0 0.2976231,0.18696 0.595577,0.374562 0.8929687,0.562239 0.1986553,0.154041 0.3971396,0.308417 0.5953125,0.463021 0.386044,-2.64e-4 0.771966,-2.64e-4 1.1575521,0 1.4765086,0.01074 2.9547785,0.02177 4.4317708,0.03307 0.253778,-2.64e-4 0.507383,-2.64e-4 0.760677,0 0.242546,-0.231534 0.485334,-0.463285 0.727604,-0.694531 0.297589,-0.154432 0.595577,-0.308946 0.892969,-0.463021 5.649717,0.04379 11.311202,0.08793 16.966406,0.132292 0.386098,0.01077 0.771967,0.02177 1.157552,0.03307 0.275688,0.30821 0.551479,0.617095 0.826823,0.926041 0.242811,0.297408 0.485333,0.595048 0.727604,0.892969 0.15462,0.17063 0.308946,0.34149 0.463021,0.51263 z"
       inkscape:path-effect="#path-effect94-5"
       inkscape:connector-curvature="0"
       id="path4853"
       d="m 33.591011,38.577091 c -0.01107,1.353524 -0.03322,4.060841 -0.0365,5.554838 -0.0033,1.493997 0.0123,1.774602 -0.089,2.039739 -0.101308,0.265137 -0.319384,0.514366 -0.553272,0.787202 -0.233887,0.272835 -0.482826,0.568392 -0.662634,0.804605 -0.179807,0.236212 -0.289943,0.412429 -0.847519,0.484218 -0.557576,0.07179 -1.559029,0.03877 -2.148822,0.04975 -0.589793,0.01098 -0.766136,0.06608 -1.296115,0.110256 -0.529979,0.04417 -1.410342,0.07719 -2.138045,0.0827 -0.727703,0.0055 -1.300788,-0.01653 -1.780447,-0.05511 -0.479659,-0.03859 -0.865339,-0.09368 -1.300441,-0.200072 -0.435101,-0.106389 -0.8989,-0.257393 -1.334375,-0.33459 -0.435476,-0.0772 -0.832217,-0.0772 -1.218166,0.01649 -0.38595,0.09369 -0.760526,0.280978 -1.019684,0.44635 -0.259159,0.165373 -0.402352,0.308567 -0.623129,0.363802 -0.220777,0.05524 -0.517884,0.02222 -5.956978,-0.07707 -5.4390946,-0.09929 -16.0031524,-0.26453 -21.5263393,-0.358234 -5.5231867,-0.0937 -5.9972207,-0.115753 -6.4603287,-0.04963 -0.463108,0.06613 -0.914865,0.220384 -1.43874,0.336202 -0.523876,0.115817 -1.11877,0.192933 -1.675643,0.226025 -0.556873,0.03309 -1.074759,0.02207 -1.554479,-0.06062 -0.47972,-0.0827 -0.920473,-0.23696 -1.422129,-0.330691 -0.501655,-0.09373 -1.063699,-0.126794 -3.31903,-0.110253 -2.255332,0.01654 -6.200291,0.08266 -8.322498,0.09921 -2.122208,0.01655 -2.419843,-0.01652 -2.651535,-0.115818 -0.231691,-0.0993 -0.396926,-0.264532 -0.639463,-0.51258 -0.242537,-0.248049 -0.562243,-0.578779 -0.799266,-0.826827 -0.237024,-0.248048 -0.391366,-0.413415 -0.474047,-0.656063 -0.08268,-0.242648 -0.09371,-0.562374 -0.0937,-0.887466 5e-6,-0.325093 0.01104,-0.656087 0.14885,-0.97016 0.137813,-0.314072 0.402616,-0.611975 0.534784,-0.898471 0.132167,-0.286495 0.132167,-0.56236 0.05504,-0.859786 -0.07712,-0.297426 -0.231612,-0.61744 -0.394642,-0.879228 -0.163031,-0.261788 -0.344054,-0.476752 -0.421204,-0.724912 -0.07715,-0.248161 -0.0551,-0.534825 -0.04959,-1.04708 0.0055,-0.512254 -0.0055,-1.251611 0.0048,-1.742259 0.01033,-0.490647 0.04483,-0.755133 0.278961,-1.093797 0.234128,-0.338663 0.65907,-0.752709 1.017261,-1.121932 0.358191,-0.369223 0.645002,-0.689128 1.058191,-0.859862 0.41319,-0.170734 0.953849,-0.192803 2.51313,-0.225862 1.55928,-0.03306 4.14028,-0.07718 6.124568,-0.03859 1.984288,0.03859 3.373495,0.159872 4.376639,0.275626 1.003144,0.115754 1.620612,0.226016 2.254428,0.275606 0.633816,0.04959 1.284471,0.03856 2.016693,-0.128686 0.732221,-0.16725 1.527812,-0.483306 2.123044,-0.692725 0.595231,-0.209418 0.981235,-0.308677 1.454996,-0.29764 0.473762,0.01104 1.036456,0.132402 1.47735,0.248144 0.440894,0.115741 0.760712,0.226023 3.4770199,0.259078 2.7163077,0.03306 7.8340642,-0.01106 10.52398664,-0.03311 2.68992246,-0.02205 2.95451956,-0.02205 3.23539306,0.07159 0.2808736,0.09363 0.5788282,0.281235 0.8268352,0.452086 0.2480069,0.170851 0.4464909,0.325228 0.7387131,0.402383 0.2922222,0.07716 0.6781442,0.07716 1.6091905,0.08266 0.9310463,0.0055 2.4093162,0.01654 3.2747026,0.02205 0.865386,0.0055 1.118991,0.0055 1.366914,-0.110253 0.247923,-0.115763 0.490711,-0.347515 0.760663,-0.540307 0.269953,-0.192792 0.567941,-0.347305 3.541469,-0.402367 2.973527,-0.05506 8.635012,-0.01092 11.65566,0.01664 3.020649,0.02756 3.406517,0.03859 3.737018,0.198324 0.330502,0.159738 0.606292,0.468623 0.865365,0.771793 0.259073,0.303169 0.501595,0.60081 0.700046,0.835093 0.198451,0.234283 0.352777,0.405143 0.429953,0.490588 0.07718,0.08544 0.07717,0.08546 0.0661,1.438986 z"
       style="display:inline;fill:#28282a;stroke:none;stroke-width:0.26458332px;stroke-linecap:butt;stroke-linejoin:miter;stroke-opacity:1;fill-opacity:1"
       transform="matrix(0.93218345,0,0,0.93218345,35.564641,-30.942436)" />
  </g>
</svg>
